<?xml version="1.0" encoding="utf-8"?>
<!-- Generator: Adobe Illustrator 25.0.1, SVG Export Plug-In . SVG Version: 6.00 Build 0)  -->
<svg aria-labelledby="placeholder_title" aria-describedby="placeholder_desc" version="1.1" id="placeholder_image" xmlns="http://www.w3.org/2000/svg" xmlns:xlink="http://www.w3.org/1999/xlink" x="0px" y="0px"
	 viewBox="0 0 1125 632" style="enable-background:new 0 0 1125 632;" xml:space="preserve">
	 <title id="placeholder_title">Placeholder image</title>
	 <desc id="placeholder_desc">This is a placeholder image for an image that is missing.</desc>
<style type="text/css">
	.st0{fill:#999999;}
	.st1{fill:#3A3A3A;}
</style>
<rect x="0.64" y="-0.48" class="st0" width="1124" height="632.25"/>
<g id="_x34_sZpVc.tif">
	<g>
		<path class="st1" d="M719.04,297.84c0-26.53-0.13-53.05-0.07-79.58c0.04-16.03-11.19-27.54-27.19-27.54c-43.03,0-86.06,0-129.08,0
			c-43.32,0-86.64,0.12-129.96-0.06c-15.05-0.06-27.02,12.43-26.78,26.87c0.26,15.77,0.06,31.54,0.06,47.32
			c0,49.75,0.01,99.5-0.01,149.25c0,7.68,2.46,14.33,7.99,19.7c5.79,5.62,12.95,7.54,20.84,7.54c84.3-0.02,168.61-0.01,252.91-0.01
			c1.56,0,3.12,0.02,4.67-0.01c14.96-0.27,26.26-11.31,26.46-26.29c0.21-16.52,0.05-33.04,0.07-49.55
			C718.97,342.93,719.04,320.39,719.04,297.84z M698.06,412.11c0,1.26,0,2.55-0.26,3.77c-0.57,2.7-2.28,4.22-5.08,4.38
			c-0.97,0.06-1.95,0.04-2.92,0.04c-84.87,0-169.74,0-254.61,0c-0.78,0-1.56,0.02-2.34-0.02c-3.58-0.17-5.68-2-5.76-5.62
			c-0.17-7.86-0.13-15.74-0.14-23.6c-0.01-17.1,0-34.2,0-51.29c0-17,0-34,0-51c0-15.74-0.01-31.48,0-47.21
			c0-7.77-0.07-15.55,0.08-23.32c0.1-5.05,1.74-6.48,6.84-6.48c42.92-0.01,85.84,0,128.77,0c42.63,0,85.26,0,127.89,0
			c6.02,0,7.55,1.53,7.55,7.62C698.07,283.62,698.07,347.86,698.06,412.11z"/>
		<path class="st1" d="M562.36,399.27c-36.89,0-73.78,0-110.67,0c-4,0-4-0.01-4-4.01c0-8.17,0.03-16.34-0.03-24.5
			c-0.01-1.77,0.46-3.19,1.72-4.45c16.24-16.22,32.47-32.45,48.67-48.72c1.51-1.51,2.48-1.15,3.82,0.21
			c7.25,7.35,14.6,14.59,21.84,21.93c1.64,1.66,2.87,1.8,4.6,0.05c13.72-13.81,27.51-27.54,41.28-41.31
			c12.6-12.59,25.22-25.16,37.75-37.82c1.7-1.72,2.73-1.74,4.45-0.01c17.67,17.84,35.41,35.62,53.14,53.4
			c3.3,3.31,6.62,6.6,10.02,9.79c1.54,1.44,2.26,3.08,2.26,5.15c0,22.55-0.03,45.1,0.06,67.66c0.01,2.98-1.8,2.63-3.66,2.63
			C636.53,399.27,599.45,399.27,562.36,399.27z"/>
		<path class="st1" d="M510.29,263.53c-0.03,17.55-13.89,31.55-31.19,31.47c-17.66-0.07-31.36-13.91-31.33-31.63
			c0.03-17,14.12-30.95,31.19-30.88C496.37,232.56,510.32,246.38,510.29,263.53z"/>
	</g>
</g>
</svg>
